<svg xmlns="http://www.w3.org/2000/svg" width="265.436" height="38.665" viewBox="0 0 265.436 38.665"><g transform="translate(6329 4426.665)"><g transform="translate(-6339.557 -4430.149)"><g transform="translate(-252.799 -46.665)"><g transform="translate(474.89 50.149)"><g transform="translate(0 0)"><path d="M17.641,30.927a.776.776,0,0,0-.824-.818H2.473a.818.818,0,1,0,0,1.636H16.817A.823.823,0,0,0,17.641,30.927Z" transform="translate(0 -3.484)" fill="#fff"/><path d="M5.77,34.2H4.122a.818.818,0,1,0,0,1.636H5.77a.818.818,0,1,0,0-1.636Z" transform="translate(0 -3.484)" fill="#fff"/><path d="M9.645,26.836a.776.776,0,0,0-.824-.818h-8a.818.818,0,1,0,0,1.636h8A.823.823,0,0,0,9.645,26.836Z" transform="translate(0 -2.677)" fill="#fff"/><path d="M53.387,25.609a2.819,2.819,0,0,0-1.307-1.039l-6.625-2.152h0l-2.7-.816a4.188,4.188,0,0,1-1.918-1.335l-2.266-3.19a.759.759,0,0,0,.7-.742.769.769,0,0,0-.872-.742h-.872L36.476,14.11a.759.759,0,0,0,.7-.742.769.769,0,0,0-.872-.742H35.43l-.872-1.187a.744.744,0,0,0,.61-.668.769.769,0,0,0-.872-.742h-.784L32.38,8.472a.077.077,0,0,0-.087-.074,4.817,4.817,0,0,0-3.922-1.41A3.587,3.587,0,0,0,25.581,8.62a.631.631,0,0,0,.087.668L32.9,19.823a.572.572,0,0,0,.436.3l8.891,2.893h.087l2.615.816h0l6.537,2.152a.675.675,0,0,1,.436.371,1.5,1.5,0,0,1-.087,1.781H37.61a4.578,4.578,0,0,1-2.441-.668L10.85,12.107a2.423,2.423,0,0,0,.784-.668,2.847,2.847,0,0,0,.61-1.855L11.46,3.352l1.046-1.41a.926.926,0,0,1,1.133-.148c.261.223,1.307.964,3.835,4.451a8.837,8.837,0,0,0,5.753,3.116.965.965,0,0,0,1.046-.594.826.826,0,0,0-.7-.89,7.409,7.409,0,0,1-4.62-2.522C15.905,1.349,15.034.756,14.685.533a2.94,2.94,0,0,0-3.574.519l-5.317,7.2a1.837,1.837,0,0,0-.349,1.484,2.1,2.1,0,0,0-1.307.816L2.743,12.4a1.962,1.962,0,0,0,.7,2.968c.784.519,2.441,1.41,4.881,2.745a1.635,1.635,0,0,0,.436.148.92.92,0,0,0,.7-.371.67.67,0,0,0-.261-1.039C6.84,15.52,5.184,14.629,4.4,14.11a.628.628,0,0,1-.174-.964l1.307-1.706a.926.926,0,0,1,1.133-.148h0l27.37,17.36a6.451,6.451,0,0,0,3.487.964H49.551a18.807,18.807,0,0,1-6.537,1.41H37.435a8.843,8.843,0,0,1-4.184-1.039C28.2,27.242,18.782,22.123,11.9,18.339a.948.948,0,0,0-1.22.223.67.67,0,0,0,.261,1.039C17.649,23.31,26.8,28.28,31.944,31.1H9.455a.752.752,0,1,0,0,1.484H42.927c3.574,0,8.717-1.632,10.024-3.19A2.9,2.9,0,0,0,53.387,25.609ZM34.123,18.932l-6.8-9.867a2.473,2.473,0,0,1,1.22-.519,2.891,2.891,0,0,1,2.353.816l.523.742h-.784a.752.752,0,1,0,0,1.484h1.83l.872,1.187h-.7a.752.752,0,1,0,0,1.484h1.743l1.046,1.41h-.7a.752.752,0,1,0,0,1.484h1.743l2.441,3.264ZM7.276,9.065l2.7-3.635.523,4.3a1.333,1.333,0,0,1-.261.816.834.834,0,0,1-1.307.3,14.2,14.2,0,0,1-1.22-.742C7.189,9.733,7.1,9.362,7.276,9.065Z" transform="translate(0 -0.149)" fill="#fff"/></g></g></g></g><text transform="translate(-6329 -4419)" fill="#fff" font-size="26" font-family="HelveticaNeue, Helvetica Neue" style="mix-blend-mode:overlay;isolation:isolate"><tspan x="2.917" y="25">B O X S H O E S</tspan></text></g></svg>